<mxfile host="app.diagrams.net" modified="2023-10-18T08:47:00.693Z" agent="Mozilla/5.0 (X11; Linux x86_64) AppleWebKit/537.36 (KHTML, like Gecko) Chrome/117.0.0.0 Safari/537.36" version="22.0.4" etag="GEqFHN4xYnDiuUiVbWPu" type="github">
  <diagram name="第 1 页" id="xGvGi6j_huVcdaR8eCCa">
    <mxGraphModel>
      <root>
        <mxCell id="0" />
        <mxCell id="1" parent="0" />
      </root>
    </mxGraphModel>
  </diagram>
</mxfile>
